<svg fill="none" height="100" viewBox="0 0 100 100" width="100" xmlns="http://www.w3.org/2000/svg" xmlns:xlink="http://www.w3.org/1999/xlink"><clipPath id="a"><path d="m0 0h100v100h-100z"/></clipPath><g clip-path="url(#a)"><path d="m97.4467 2.55328v94.89342h-94.89342v-94.89342zm2.5533-2.55328h-100v100h100z" fill="#2099a0"/><g fill="#1d98a0"><path d="m70.1041 68.7527c.0323-.0732.0766-.1379.1327-.1924.0562-.0544.1209-.097.1958-.1276.0749-.0307.1532-.046.2383-.046s.1634.0153.2366.046c.0732.0306.1396.0732.194.1276.0562.0545.0988.1192.1328.1924s.0494.1549.0494.24-.0171.1702-.0494.2434-.0766.1396-.1328.1941c-.0561.0544-.1208.097-.194.1276-.0749.0307-.1532.046-.2366.046s-.1634-.0153-.2383-.046c-.0749-.0306-.1396-.0732-.1958-.1276-.0561-.0545-.1004-.1192-.1327-.1941-.0324-.0749-.0494-.1566-.0494-.2434s.017-.1668.0494-.24zm.1004.4477c.0255.0629.0613.1191.1055.1651.0443.0476.0987.0834.16.1106.0613.0273.1277.0409.2009.0409s.1362-.0136.1974-.0409c.0613-.0272.1141-.063.16-.1106.046-.0477.08-.1022.1056-.1651.0255-.063.0391-.1328.0391-.2077s-.0119-.1413-.0391-.2043c-.0256-.0629-.0613-.1174-.1056-.1634-.0442-.0459-.0987-.0834-.16-.1089-.0612-.0256-.1276-.0409-.1974-.0409s-.1379.0136-.2009.0409c-.0613.0272-.114.063-.16.1089-.0459.046-.08.1005-.1055.1634-.0256.063-.0375.1311-.0375.2043s.0119.1447.0375.2077zm.5038-.5635c.0851 0 .1481.0171.189.0511.0408.034.0612.0851.0612.1532 0 .0647-.0187.1106-.0544.1413-.0358.0306-.08.0476-.1345.0528l.2043.3149h-.1192l-.194-.3064h-.1175v.3064h-.1106v-.7133zm-.0493.3166c.0255 0 .0493 0 .0715-.0034.0221 0 .0425-.0068.0595-.0136.0171-.0068.0307-.0187.0409-.0357s.0153-.0375.0153-.0664c0-.0238-.0051-.0426-.0136-.0579s-.0204-.0255-.0358-.0323c-.0153-.0068-.0323-.0119-.051-.0153s-.0375-.0034-.0562-.0034h-.1464v.2263h.1158z"/><path d="m29.063 59.9082v.6009h-1.7855l2.3694 7.1645 2.538-7.7654h1.3719l2.538 7.7654 2.1617-7.1645h-1.7481v-.6009h4.2112v.5992h-1.5796l-2.8954 9.0641h-.846l-2.8018-8.4411-2.8393 8.4411h-.8459l-2.9704-9.0624h-1.5711v-.6009h4.6912z"/><path d="m49.8891 64.7145c0 3.3193-1.4672 4.8512-4.5874 4.8512-3.1201 0-4.5873-1.5319-4.5873-4.8512s1.4468-4.8512 4.5873-4.8512c3.1406 0 4.5874 1.5677 4.5874 4.8512zm-7.8028.0545c0 2.8443.9771 4.2129 3.2154 4.2129 2.2384 0 3.2155-1.3686 3.2155-4.2674s-.9771-4.2674-3.2155-4.2674c-2.2383 0-3.2154 1.3686-3.2154 4.3219z"/><path d="m57.0041 63.5077v-.9022c0-1.4094-.3949-2.1056-1.372-2.1056-1.166 0-2.0681 1.2222-2.0681 3.6103v4.8513h1.8417v.6008h-4.8325v-.6008h1.6546v-8.4531h-1.6546v-.6009h2.9891v1.6103c.5821-1.166 1.2971-1.6545 2.463-1.6545 1.7107 0 2.1993.8647 2.1993 2.7456v.9022h-1.2222z"/><path d="m67.9118 68.9702v-12.8413h-2.5788l-.1702.6009h1.4145v4.681c-.5634-.9958-1.6358-1.5422-3.0844-1.5422-2.5192 0-3.9099 1.4298-3.9099 4.7014s1.3907 5.0011 3.9304 5.0011c1.4672 0 2.4443-.5635 3.0639-1.7669v1.7669h2.989v-.6009zm-1.8622-1.3532c-.4698.7336-1.3345 1.1847-2.332 1.1847-1.8809 0-2.6894-1.4094-2.6894-4.3048 0-2.8955.7336-3.8742 2.6894-3.8742 1.0145 0 1.8997.4511 2.332 1.0911.4324.64.526 1.3532.526 2.7831 0 1.4298-.0749 2.4443-.526 3.1218z"/><path d="m15.5901 33.4578h7.1832v19.6704h2.2809v2.3746h-9.4658v-2.3746h2.2503v-17.3282h-2.2503v-2.3439z"/><path d="m34.0299 55.5024c-5.5491 0-7.8624-2.4103-7.8624-7.9543 0-5.5441 2.3115-7.9543 7.8624-7.9543 5.5508 0 7.8624 2.4102 7.8624 7.9543 0 5.544-2.3116 7.9543-7.8624 7.9543zm0-2.3627c2.4664 0 2.8682-1.44 2.8682-5.5916 0-4.1517-.4018-5.7296-2.8682-5.7296-2.4665 0-2.8665 1.6069-2.8665 5.7296s.4 5.5916 2.8665 5.5916z"/><path d="m61.8161 34.7871v4.807h4.4393v2.2196h-4.4393v7.8386c0 1.9694.2775 3.0146 1.5422 3.0146s1.9422-1.1047 1.9422-3.1048v-.2383h1.7567v.3591c0 3.9695-1.5728 5.8198-5.1185 5.8198-3.8231 0-5.0572-1.6715-5.0572-5.6717v-8.0173h-2.4665v-2.2196h2.4665v-4.807h4.9329z"/><path d="m67.9238 41.8173v-2.2196h9.1884v2.2196h-2.1583l3.7005 9.6803 2.9601-9.6803h-2.2196v-2.2196h7.0606v2.2196h-2.0034l-4.9636 14.3069c-1.2954 3.7312-2.1788 5.338-5.6292 5.338-3.0128 0-5.0282-1.7924-5.0282-4.875 0-.2775-.0306-.1549 0-.463h3.1967v.463c0 2.189.4102 3.035 2.0341 3.2682 2.0409.2927 2.8358-1.4809 3.3908-4.3474h-2.378l-5.5185-13.689h-1.6307z"/><path d="m43.0684 53.1404h1.9711v-11.3366h-2.0341v-2.2196h2.0341c-.1226-1.0179-.1856-1.2239-.1856-1.7788 0-2.8358 1.5422-4.3474 4.1925-4.3474 1.4486 0 2.8682.509 3.7619 1.5252l-1.3635 2.0562c-.6298-1.086-2.269-1.4162-2.8733-.8-.4936.5021-.4596 1.4366-.1651 2.0426.6962 1.4366 1.566 1.3005 1.566 1.3005h2.8359v2.2196h-2.8359v11.3366h2.8359v2.3745h-9.7417v-2.3745z"/></g></g></svg>