<?xml version="1.0" encoding="utf-8"?>
<!-- Generator: Adobe Illustrator 27.7.0, SVG Export Plug-In . SVG Version: 6.00 Build 0)  -->
<svg version="1.1" id="Layer_1" xmlns="http://www.w3.org/2000/svg" xmlns:xlink="http://www.w3.org/1999/xlink" x="0px" y="0px"
	 viewBox="0 0 336.6 73.4" style="enable-background:new 0 0 336.6 73.4;" xml:space="preserve">
<style type="text/css">
	.st0{fill:#FFFFFF;}
</style>
<path class="st0" d="M148.3,59.5c-1.2,0.8-2.7,1.3-4.3,1.3c-2.6,0-5-1.4-6.3-3.4c-0.6-0.9-1.9-0.9-2.4,0c-1.3,2.1-3.7,3.4-6.3,3.4
	c-2.6,0-5-1.4-6.3-3.4c-0.6-0.9-1.9-0.9-2.4,0c-1.3,2.1-3.7,3.4-6.3,3.4s-5-1.4-6.3-3.4c-0.6-0.9-1.9-0.9-2.4,0
	c-1.3,2.1-3.7,3.4-6.3,3.4s-5-1.4-6.3-3.4c-0.6-0.9-1.9-0.9-2.4,0c-1.3,2.1-3.7,3.4-6.3,3.4s-5-1.4-6.3-3.4c-0.6-0.9-1.9-0.9-2.4,0
	c-1.3,2.1-3.7,3.4-6.3,3.4s-5-1.4-6.3-3.4c-0.6-0.9-1.9-0.9-2.4,0c-1.3,2.1-3.7,3.4-6.3,3.4s-5-1.4-6.3-3.4c-0.6-0.9-1.9-0.9-2.4,0
	c-1.3,2.1-3.7,3.4-6.3,3.4s-5-1.4-6.3-3.4c-0.6-0.9-1.9-0.9-2.4,0c-1.3,2.1-3.7,3.4-6.3,3.4c-1.6,0-3.1-0.5-4.3-1.3
	c-0.5,1.7-0.7,3.4-0.7,5.2v6.9L149,71.8v-7.1C149,63,148.7,61.2,148.3,59.5L148.3,59.5z"/>
<path class="st0" d="M164.4,1.2H2.1c-0.5,0-1,0.4-1,1v4.9c0,0.5,0.4,1,1,1h4v62.4c0,0.5,0.4,1,1,1l8.4,0v-6.9c0-0.3,0-0.6,0-1v0
	C15.6,43,46,26.2,83.6,26.2s68.1,16.7,68.1,37.4c0,0.4,0.1,0.7,0.1,1v7.1l8.4,0c0.5,0,1-0.4,1-1c0-2.2,0-7.2,0-7.2V8.2h3.3
	c0.5,0,1-0.4,1-1V2.2C165.4,1.7,164.9,1.2,164.4,1.2L164.4,1.2z M29.2,30.3c-5.3,3.2-9.8,6.8-13.4,10.7V20.4c0-4.2,3.4-7.5,7.5-7.5
	c2.4,0,4.5,1.1,5.9,2.9V30.3L29.2,30.3z M44.4,23.2c-4.5,1.6-8.7,3.5-12.5,5.5V16.5c0.1-0.1,0.1-0.1,0.2-0.2
	c1.3-2.1,3.7-3.4,6.3-3.4c2.5,0,4.6,1.2,6,3V23.2z M59.8,19.1c-4.4,0.9-8.7,2-12.7,3.3v-5.9c0,0,0-0.1,0.1-0.1
	c1.3-2.1,3.7-3.4,6.3-3.4c2.6,0,5,1.4,6.3,3.4L59.8,19.1L59.8,19.1z M74.8,17.1c-4.2,0.3-8.3,0.8-12.3,1.5V16
	c1.4-1.9,3.6-3.1,6.1-3.1c2.6,0,4.9,1.3,6.2,3.3L74.8,17.1L74.8,17.1z M89.8,16.9c-2-0.1-4.1-0.2-6.2-0.2c-2.1,0-4.1,0.1-6.2,0.2
	v-0.8c1.4-1.9,3.6-3.2,6.2-3.2c2.5,0,4.8,1.3,6.2,3.2V16.9L89.8,16.9z M105.1,18.6c-4.1-0.7-8.3-1.2-12.6-1.5v-0.9
	c1.4-2,3.6-3.3,6.3-3.3c2.6,0,5,1.4,6.3,3.4V18.6L105.1,18.6z M120,22.3c-3.9-1.3-8-2.3-12.3-3.2V16c1.4-1.9,3.6-3.1,6.1-3.1
	c2.6,0,4.9,1.3,6.2,3.3L120,22.3L120,22.3z M135.1,28.6c-3.8-2.1-8-3.9-12.4-5.5v-7c1.4-2,3.6-3.2,6.2-3.2c2.6,0,4.9,1.3,6.2,3.3
	L135.1,28.6L135.1,28.6z M151.5,41.1c-3.7-4-8.3-7.7-13.7-10.9v-14c1.4-2,3.6-3.2,6.2-3.2c4.2,0,7.5,3.4,7.5,7.5V41.1z"/>
<path class="st0" d="M189.3,21.3c0,0.5,0,0.6,0.5,0.6l2.1,0.2v2H184v-2l1.9-0.2c0.4-0.1,0.5-0.2,0.5-0.6V4.7c0-0.5-0.1-0.6-0.5-0.6
	L184,3.9v-2h6.7L201,19.4V4.7c0-0.5-0.1-0.6-0.5-0.6l-1.9-0.2v-2h7.9v2l-2.1,0.2C204,4.2,204,4.2,204,4.7v19.4h-4L189.3,6.6
	L189.3,21.3L189.3,21.3z"/>
<path class="st0" d="M225.4,21.9l-1.4-4.1h-8.2l-1.4,4.1l2.5,0.3v2h-7.7v-1.9l1.3-0.3c0.4-0.1,0.6-0.2,0.8-0.6l6.7-19.3h4.3
	l6.8,19.4c0.1,0.4,0.4,0.4,0.7,0.5l1.4,0.3v1.9h-8.4v-2L225.4,21.9L225.4,21.9z M216.6,15h6.6L220,5.3h-0.1
	C219.9,5.3,216.6,15,216.6,15z"/>
<path class="st0" d="M240.4,21.9c0.4,0,0.5-0.2,0.5-0.6V4.5h-4.1c-0.3,0-0.4,0-0.5,0.3l-0.5,2.7h-2.6V1.9h18.9v5.6h-2.5l-0.5-2.7
	c-0.1-0.3-0.2-0.3-0.5-0.3h-4.1v16.7c0,0.4,0,0.6,0.5,0.6l3.4,0.2v2h-11.1v-2L240.4,21.9L240.4,21.9z"/>
<path class="st0" d="M256.1,12.9c0-6.5,3.7-11.4,10.8-11.4s10.2,4.9,10.2,11.1c0,7.2-3.5,11.9-10.6,11.9
	C259.2,24.5,256.1,19.7,256.1,12.9L256.1,12.9z M273.4,12.9c0-5.6-2.5-8.4-6.6-8.4c-4.1,0-7.1,2.8-7.1,8.4c0,5.9,2.7,8.6,6.8,8.6
	C270.6,21.5,273.4,19,273.4,12.9L273.4,12.9z"/>
<path class="st0" d="M302.2,21.9c0.4,0,0.5-0.2,0.5-0.6V7.4h-0.1l-5.3,11.8h-4l-5.4-12h-0.1v14.1c0,0.5,0,0.6,0.5,0.6l2.6,0.2v2
	h-8.6v-2l1.9-0.2c0.4-0.1,0.5-0.2,0.5-0.6V4.7c0-0.5-0.1-0.6-0.5-0.6l-1.9-0.2v-2h6.9l6.3,14.3h0.1L302,1.9h6.6v2l-2.1,0.2
	c-0.5,0.1-0.5,0.1-0.5,0.6v16.6c0,0.4,0.1,0.5,0.5,0.6l2.1,0.2v2h-8.9v-2L302.2,21.9L302.2,21.9z"/>
<path class="st0" d="M328.9,21.9l-1.4-4.1h-8.2l-1.4,4.1l2.5,0.3v2h-7.7v-1.9l1.3-0.3c0.4-0.1,0.6-0.2,0.8-0.6l6.7-19.3h4.3
	l6.8,19.4c0.1,0.4,0.4,0.4,0.7,0.5l1.4,0.3v1.9h-8.4v-2L328.9,21.9L328.9,21.9z M320.2,15h6.6l-3.2-9.7h-0.1
	C323.4,5.3,320.2,15,320.2,15z"/>
<path class="st0" d="M199.7,41.3l-3.6,12.9h-4.7l-5-19.4c-0.1-0.4-0.3-0.5-0.7-0.6L184,34l0.3-2h8.6v2l-2.7,0.3l3.9,16.3h0.1
	l3.9-14.3h3.9l4,14.4h0.2l3.9-16.5l-2.8-0.3l0.3-2h7.9v2l-1.6,0.3c-0.4,0.1-0.6,0.2-0.7,0.6l-4.8,19.4h-4.9L199.7,41.3L199.7,41.3
	L199.7,41.3z"/>
<path class="st0" d="M222.3,52.1c0.4-0.1,0.5-0.2,0.5-0.6V34.9c0-0.5-0.1-0.6-0.5-0.6l-2-0.2v-2h16.2v5.5l-2.7-0.1l-0.4-2.4
	c-0.1-0.3-0.2-0.4-0.5-0.4h-6.4v7.1h8v2.7h-8v7.2h7.1c0.3,0,0.4,0,0.5-0.3l0.5-2.7h2.7v5.6h-16.9v-2L222.3,52.1L222.3,52.1z"/>
<path class="st0" d="M258.4,52l-1.5-4.1h-8.4l-1.5,4.1l2.5,0.3v2h-7.9v-1.9L243,52c0.4-0.1,0.7-0.2,0.8-0.6l7-19.4h4.5l7,19.4
	c0.1,0.4,0.4,0.4,0.8,0.5l1.5,0.3v1.9h-8.6v-2L258.4,52L258.4,52z M249.3,45.2h6.8l-3.3-9.7h-0.1L249.3,45.2L249.3,45.2z"/>
<path class="st0" d="M271.1,52.1c0.4-0.1,0.5-0.2,0.5-0.6V34.9c0-0.5-0.1-0.6-0.5-0.6l-2-0.2v-2h9.3v2l-2.6,0.2
	c-0.5,0-0.5,0.2-0.5,0.6v16.8h7.1c0.3,0,0.4,0,0.5-0.3l0.5-2.9h2.7v5.9h-16.9v-2L271.1,52.1L271.1,52.1z"/>
<path class="st0" d="M295,52c0.4,0,0.5-0.2,0.5-0.6V34.7h-4.2c-0.3,0-0.4,0-0.5,0.3l-0.5,2.7h-2.7V32h19.5v5.6h-2.6L304,35
	c-0.1-0.3-0.2-0.3-0.5-0.3h-4.3v16.7c0,0.4,0,0.6,0.5,0.6l3.5,0.2v2h-11.4v-2L295,52L295,52z"/>
<path class="st0" d="M328.1,52.1c0.4-0.1,0.5-0.2,0.5-0.6v-7.3h-10v7.3c0,0.5,0,0.6,0.5,0.6l2.1,0.2v2h-8.8v-2l2-0.2
	c0.4-0.1,0.5-0.2,0.5-0.6V34.8c0-0.5-0.1-0.6-0.5-0.6l-2-0.2v-2h8.8v2l-2.1,0.2c-0.5,0.1-0.5,0.1-0.5,0.6v6.6h10v-6.6
	c0-0.5-0.1-0.6-0.5-0.6l-2-0.2v-2h8.7v2l-2,0.2c-0.5,0.1-0.5,0.1-0.5,0.6v16.6c0,0.5,0,0.6,0.5,0.6l2,0.2v2h-8.7v-2L328.1,52.1
	L328.1,52.1z"/>
<path class="st0" d="M188.8,67.1c0,1.4-1,2.1-2.3,2.1h-1.7v2.7H184V65h2.6C187.8,65,188.8,65.7,188.8,67.1L188.8,67.1z M188,67.1
	c0-0.9-0.5-1.4-1.5-1.4h-1.8v2.8h1.7C187.5,68.5,188,68,188,67.1z"/>
<path class="st0" d="M197.3,68.5c0,2.1-1.2,3.6-2.9,3.6s-2.9-1.5-2.9-3.6s1.2-3.6,2.9-3.6S197.3,66.4,197.3,68.5z M196.5,68.5
	c0-1.7-0.9-2.9-2.1-2.9c-1.2,0-2.1,1.1-2.1,2.9s0.9,2.9,2.1,2.9C195.7,71.3,196.5,70.2,196.5,68.5L196.5,68.5z"/>
<path class="st0" d="M207.4,65l-1.4,6.9h-0.9l-1.1-4.4c-0.1-0.5-0.3-1.1-0.3-1.6c-0.1,0.4-0.2,1.1-0.3,1.6l-1.1,4.4h-0.9L200,65h0.8
	l0.8,4.5c0.1,0.5,0.2,1.2,0.3,1.5c0.1-0.3,0.2-1.1,0.3-1.5l1.1-4.5h0.8l1.1,4.5c0.1,0.4,0.3,1.2,0.3,1.5c0.1-0.3,0.2-1.1,0.3-1.5
	l0.8-4.5H207.4L207.4,65z"/>
<path class="st0" d="M214.9,71.9h-4.3V65h4.2v0.7h-3.4v2.2h2v0.7h-2v2.6h3.6V71.9L214.9,71.9z"/>
<path class="st0" d="M223.1,67c0,1.1-0.6,1.8-1.6,2l1.5,3h-0.9l-1.5-2.9h-1.6v2.9h-0.8V65h2.7C222.1,65,223.1,65.6,223.1,67z
	 M222.3,67c0-0.9-0.5-1.3-1.4-1.3h-1.9v2.6h1.8C221.8,68.3,222.3,67.9,222.3,67L222.3,67z"/>
<path class="st0" d="M230.7,71.9h-4.3V65h4.2v0.7h-3.4v2.2h2v0.7h-2v2.6h3.6V71.9L230.7,71.9z"/>
<path class="st0" d="M238.9,68.4c0,2.5-1.4,3.5-3.3,3.5h-1.7V65h1.8C237.6,65,238.9,66,238.9,68.4L238.9,68.4z M238.1,68.4
	c0-1.8-0.9-2.7-2.4-2.7h-1v5.5h1C237.2,71.2,238.1,70.4,238.1,68.4L238.1,68.4z"/>
<path class="st0" d="M251.2,69.9c0,1.4-0.8,2-2.3,2h-2.5V65h2.5c1.1,0,1.9,0.5,1.9,1.7c0,0.8-0.4,1.2-1,1.4
	C250.5,68.3,251.2,68.8,251.2,69.9z M250.1,66.8c0-0.6-0.4-1.1-1.1-1.1h-1.7v2.2h1.7C249.8,67.9,250.1,67.4,250.1,66.8L250.1,66.8z
	 M250.5,69.9c0-0.9-0.6-1.4-1.5-1.4h-1.7v2.7h1.8C250.1,71.2,250.5,70.7,250.5,69.9z"/>
<path class="st0" d="M259,65l-2.4,4.2v2.8h-0.8v-2.7l-2.4-4.2h0.9l1.1,2c0.3,0.5,0.6,1.1,0.8,1.5c0.2-0.4,0.5-1,0.8-1.5l1.1-2
	L259,65L259,65z"/>
<path class="st0" d="M271.5,71.9h-0.8v-3.3h-3.4v3.3h-0.8V65h0.8v3h3.4v-3h0.8V71.9z"/>
<path class="st0" d="M275.9,71.9h-0.8V65h0.8V71.9z"/>
<path class="st0" d="M284.5,69.2c0,1.9-1.1,2.9-2.6,2.9c-1.7,0-2.8-1.5-2.8-3.6c0-2.1,1.2-3.6,2.8-3.6c1,0,1.7,0.4,2.2,1.1l-0.6,0.5
	c-0.4-0.6-0.9-0.9-1.6-0.9c-1.2,0-2,1.2-2,2.9c0,1.7,0.9,2.9,2,2.9s1.8-0.7,1.8-2.1v-0.1h-1.2v-0.7h2L284.5,69.2L284.5,69.2z"/>
<path class="st0" d="M292.7,71.9H292v-3.3h-3.4v3.3h-0.8V65h0.8v3h3.4v-3h0.8V71.9z"/>
<path class="st0" d="M300.7,65.7h-2v6.2h-0.8v-6.2h-2V65h4.9V65.7z"/>
<path class="st0" d="M309.1,68.5c0,2.1-1.2,3.6-2.9,3.6s-2.9-1.5-2.9-3.6s1.2-3.6,2.9-3.6S309.1,66.4,309.1,68.5z M308.3,68.5
	c0-1.7-0.9-2.9-2.1-2.9c-1.2,0-2.1,1.1-2.1,2.9s0.9,2.9,2.1,2.9C307.4,71.3,308.3,70.2,308.3,68.5L308.3,68.5z"/>
<path class="st0" d="M319.1,65l-1.4,6.9h-0.9l-1.1-4.4c-0.1-0.5-0.3-1.1-0.3-1.6c-0.1,0.4-0.2,1.1-0.3,1.6l-1.1,4.4h-0.9l-1.4-6.9
	h0.8l0.8,4.5c0.1,0.5,0.2,1.2,0.3,1.5c0.1-0.3,0.2-1.1,0.3-1.5L315,65h0.8l1.1,4.5c0.1,0.4,0.3,1.2,0.3,1.5c0.1-0.3,0.2-1.1,0.3-1.5
	l0.8-4.5H319.1L319.1,65z"/>
<path class="st0" d="M326.7,71.9h-4.3V65h4.2v0.7h-3.4v2.2h2v0.7h-2v2.6h3.6V71.9L326.7,71.9z"/>
<path class="st0" d="M334.8,67c0,1.1-0.6,1.8-1.6,2l1.5,3h-0.9l-1.5-2.9h-1.6v2.9h-0.8V65h2.7C333.9,65,334.8,65.6,334.8,67
	L334.8,67z M334,67c0-0.9-0.5-1.3-1.4-1.3h-1.9v2.6h1.8C333.5,68.3,334,67.9,334,67L334,67z"/>
</svg>
