<svg xmlns="http://www.w3.org/2000/svg" viewBox="0 0 127 46"><path d="M74.264 27.7c0 9.532-5.198 10.675-10.395 10.675-8.936 0-10.838-4.575-10.838-11.12V8.799h-3.295V7.02h12.486v1.778h-3.55v17.918c0 6.322 1.648 9.468 6.18 9.468 4.626 0 6.877-2.288 6.877-8.865V8.8H68.4V7.02h8.873V8.8h-3.01v18.9zM83 36.248V8.798h-3.476V7.02h13.848c5.895 0 8.81 3.335 8.81 7.243 0 4.16-3.77 6.511-7.13 7.21 6.528.604 8.303 4.798 8.303 7.88 0 6.29-5.356 8.673-10.617 8.673H79.303v-1.78H83zm13.541-21.635c0-2.89-1.489-5.814-4.753-5.814h-3.6v11.913h3.22c3.453 0 5.133-2.923 5.133-6.099zm1.11 14.742c0-4.131-1.775-6.896-5.926-6.896H88.19v13.789h2.87c4.405 0 6.592-2.605 6.592-6.893zm19.521-20.968c-3.264 0-5.356 1.937-5.356 5.305 0 3.049 3.296 4.51 6.497 5.59 1.9.669 4.31 1.557 5.957 3.146 1.807 1.716 2.79 4.003 2.726 6.893-.127 5.403-3.898 9.055-10.553 9.087-2.504 0-6.401-.572-8.747-1.937l-.253-8.133h1.965c.158 5.463 2.725 8.322 7.225 8.322 3.613 0 5.61-2.414 5.61-6.099 0-3.177-2.63-4.543-6.624-5.877-1.3-.445-3.866-1.398-5.673-3.177-1.616-1.621-2.376-3.653-2.376-5.814 0-6.322 4.5-9.055 10.077-9.055 2.218 0 5.546.795 7.48 1.907l.19 7.053h-1.966c-.411-5.02-2.598-7.211-6.179-7.211z" fill="#e60000"/><path d="M34.139 13.294l-.826.69.872 2.852-2.616-1.427-.872.69 2.89 1.566-3.073 2.483-.826-1.104 1.1-.874-.825-.966-1.101.874-.826-1.058 1.101-.874-.826-1.058-5.644 4.692 5.37 4.324.962-1.196c.689.046 1.193.552 1.469 1.196l-.964 1.196.596.46c1.331-1.196 3.075-1.978 4.865-1.978 3.762 0 6.698 3.082 6.698 6.854 0 1.242-.32 2.576-1.009 3.68l1.01.782c-.046.736-.734 1.517-1.423 1.702l-.964-.783a7.008 7.008 0 01-4.91 1.979c-3.762 0-6.698-2.99-6.698-6.807 0-1.243.367-2.53.917-3.589l-.55-.507-.964 1.289c-.688-.092-1.285-.553-1.468-1.289l.964-1.15-4.543-3.772v5.98l1.514.046c.184.23.321.553.321.92 0 .322-.137.691-.275.967h-1.56v.736c3.303.552 6.057 3.358 6.057 6.76 0 3.543-2.708 6.35-6.057 6.901v1.197c-.321.183-.735.322-1.101.322-.414 0-.872-.14-1.24-.322v-1.197c-3.349-.55-5.965-3.358-5.965-6.9 0-3.403 2.616-6.21 5.965-6.715v-.782h-1.56a1.81 1.81 0 01-.275-.966c0-.368.092-.69.276-.967h1.56v-5.98l-4.589 3.772 1.01 1.15a1.82 1.82 0 01-1.514 1.289l-.964-1.289-.597.507c.643 1.058.964 2.346.964 3.589 0 3.817-2.937 6.807-6.699 6.807-1.79 0-3.58-.69-4.864-1.979l-1.01.783C.78 36.615.092 35.834 0 35.098l.963-.782C.367 33.212 0 31.878 0 30.636c0-3.772 2.936-6.854 6.7-6.854 1.834 0 3.578.782 4.909 1.978l.55-.415-.963-1.241c.23-.644.826-1.104 1.514-1.196l.964 1.196 5.368-4.324-5.644-4.692-.826 1.058 1.102.874-.826 1.058-1.102-.874-.825.966 1.055.874-.826 1.104-3.028-2.483 2.845-1.565-.826-.69-2.616 1.426.872-2.852-.826-.69-.964 3.128-3.074-2.484.826-1.012 1.055.875.872-1.012-1.101-.967.826-.967 1.101.83.78-.967-2.386-1.885c.23-.784.734-1.427 1.469-1.888l12.71 10.398v-6.948H18.4v1.335h-1.285v-1.335h-1.33v1.335h-1.331V7.82l3.028 1.287V8.003l-2.799-1.149 2.799-1.104V4.692L14.454 5.89V1.932h1.33v1.426h1.331V1.932H18.4v1.426h1.284V.23c.368-.138.78-.23 1.194-.23.367 0 .78.092 1.147.23v17.113l12.71-10.398a3.737 3.737 0 011.468 1.888l-2.432 1.885.826.967 1.102-.83.825.967-1.101.967.826 1.012 1.102-.875.825 1.012-3.074 2.484-.963-3.128zM8.167 32.107c0 1.105.827 1.794 1.79 1.887l-1.606 1.242c-1.101-.415-2.11-1.748-2.11-2.898 0-.368.091-.598.183-.874-.138 0-.23.046-.321.046-1.469 0-2.708-1.38-2.983-2.806l1.652-1.288c-.046.184-.046.321-.046.46 0 .92.872 1.748 1.79 1.748.963 0 1.88-.829 1.88-1.795 0-1.195-.917-1.977-2.064-1.977-2.248 0-4.45 2.162-4.45 5.014 0 .827.182 1.61.55 2.3l1.01-.782c.688.321 1.238 1.012 1.422 1.794l-1.01.781c.964.829 2.157 1.196 3.396 1.196 2.57 0 4.634-2.07 4.634-3.91 0-1.056-.734-1.977-1.835-1.977-1.01 0-1.882.781-1.882 1.84zm13.628 3.957c0 1.011.826 1.84 1.79 1.84.688 0 .963-.276 1.468-.69v2.07a3.176 3.176 0 01-1.56.414c-1.1 0-2.019-.323-2.615-1.289-.643.966-1.56 1.289-2.662 1.289a3.307 3.307 0 01-1.56-.414v-2.07c.46.46.826.69 1.469.69 1.01 0 1.79-.829 1.79-1.84 0-.966-.643-1.84-1.699-1.84-1.88 0-2.661 1.793-2.661 3.45 0 2.437 1.79 4.507 4.13 4.922v-1.242c.367-.185.78-.23 1.147-.23.413 0 .825.045 1.193.23v1.242c2.156-.323 4.13-2.623 4.13-4.923 0-1.702-.69-3.449-2.662-3.449-1.01 0-1.698.874-1.698 1.84zm11.426-8.235c0 .921.964 1.795 1.927 1.795.917 0 1.79-.829 1.79-1.748 0-.139-.047-.276-.047-.46l1.607 1.288c-.276 1.564-1.652 2.943-3.258 2.76.092.276.137.506.137.874 0 1.15-1.01 2.483-2.11 2.898l-1.606-1.242c1.01-.093 1.835-.782 1.835-1.887 0-1.058-.918-1.84-1.927-1.84-1.055 0-1.835.922-1.835 2.025 0 1.334 1.605 3.863 4.68 3.863 1.24 0 2.432-.367 3.35-1.196l-1.01-.781c.23-.782.688-1.473 1.422-1.794l1.01.781c.367-.69.597-1.472.597-2.299 0-2.208-1.699-5.014-4.406-5.014-1.147 0-2.156.782-2.156 1.977z"/></svg>